<svg xmlns="http://www.w3.org/2000/svg" xmlns:xlink="http://www.w3.org/1999/xlink" width="500" zoomAndPan="magnify" viewBox="0 0 375 374.999991" height="500" preserveAspectRatio="xMidYMid meet" version="1.0"><defs><clipPath id="d665df248b"><path d="M 6.355469 6.355469 L 368.605469 6.355469 L 368.605469 368.605469 L 6.355469 368.605469 Z M 6.355469 6.355469 " clip-rule="nonzero"/></clipPath></defs><g clip-path="url(#d665df248b)"><path fill="#f580eb" d="M 368.640625 187.496094 C 368.640625 190.460938 368.566406 193.425781 368.421875 196.386719 C 368.277344 199.347656 368.058594 202.300781 367.765625 205.253906 C 367.476562 208.203125 367.113281 211.144531 366.679688 214.078125 C 366.242188 217.007812 365.738281 219.929688 365.160156 222.835938 C 364.582031 225.742188 363.929688 228.636719 363.210938 231.511719 C 362.492188 234.386719 361.699219 237.242188 360.839844 240.078125 C 359.980469 242.917969 359.050781 245.730469 358.050781 248.523438 C 357.050781 251.3125 355.984375 254.078125 354.851562 256.816406 C 353.714844 259.554688 352.515625 262.265625 351.246094 264.945312 C 349.980469 267.625 348.648438 270.273438 347.25 272.886719 C 345.851562 275.5 344.390625 278.082031 342.867188 280.621094 C 341.34375 283.164062 339.757812 285.667969 338.113281 288.132812 C 336.464844 290.597656 334.757812 293.023438 332.992188 295.402344 C 331.226562 297.785156 329.402344 300.121094 327.523438 302.414062 C 325.640625 304.703125 323.707031 306.949219 321.714844 309.144531 C 319.722656 311.339844 317.679688 313.488281 315.585938 315.585938 C 313.488281 317.679688 311.339844 319.722656 309.144531 321.714844 C 306.949219 323.707031 304.703125 325.640625 302.414062 327.523438 C 300.121094 329.402344 297.785156 331.226562 295.402344 332.992188 C 293.023438 334.757812 290.597656 336.464844 288.132812 338.113281 C 285.667969 339.757812 283.164062 341.34375 280.621094 342.867188 C 278.082031 344.390625 275.5 345.851562 272.886719 347.25 C 270.273438 348.648438 267.625 349.980469 264.945312 351.246094 C 262.265625 352.515625 259.554688 353.714844 256.816406 354.851562 C 254.078125 355.984375 251.3125 357.050781 248.523438 358.050781 C 245.730469 359.050781 242.917969 359.980469 240.078125 360.839844 C 237.242188 361.699219 234.386719 362.492188 231.511719 363.210938 C 228.636719 363.929688 225.742188 364.582031 222.835938 365.160156 C 219.929688 365.738281 217.007812 366.242188 214.074219 366.679688 C 211.144531 367.113281 208.203125 367.476562 205.253906 367.765625 C 202.300781 368.058594 199.347656 368.277344 196.386719 368.421875 C 193.425781 368.566406 190.460938 368.640625 187.496094 368.640625 C 184.53125 368.640625 181.570312 368.566406 178.609375 368.421875 C 175.648438 368.277344 172.691406 368.058594 169.742188 367.765625 C 166.792969 367.476562 163.851562 367.113281 160.917969 366.679688 C 157.984375 366.242188 155.066406 365.738281 152.15625 365.160156 C 149.25 364.582031 146.359375 363.929688 143.484375 363.210938 C 140.605469 362.492188 137.75 361.699219 134.914062 360.839844 C 132.078125 359.980469 129.261719 359.050781 126.472656 358.050781 C 123.679688 357.050781 120.914062 355.984375 118.175781 354.851562 C 115.4375 353.714844 112.726562 352.515625 110.046875 351.246094 C 107.367188 349.980469 104.722656 348.648438 102.105469 347.25 C 99.492188 345.851562 96.914062 344.390625 94.371094 342.867188 C 91.828125 341.34375 89.324219 339.757812 86.859375 338.113281 C 84.394531 336.464844 81.972656 334.757812 79.589844 332.992188 C 77.210938 331.226562 74.871094 329.402344 72.582031 327.523438 C 70.289062 325.640625 68.046875 323.707031 65.847656 321.714844 C 63.652344 319.722656 61.507812 317.679688 59.410156 315.585938 C 57.3125 313.488281 55.269531 311.339844 53.277344 309.144531 C 51.289062 306.949219 49.351562 304.703125 47.472656 302.414062 C 45.589844 300.121094 43.769531 297.785156 42.003906 295.402344 C 40.234375 293.023438 38.53125 290.597656 36.882812 288.132812 C 35.234375 285.667969 33.648438 283.164062 32.125 280.621094 C 30.601562 278.082031 29.140625 275.5 27.742188 272.886719 C 26.347656 270.273438 25.011719 267.625 23.746094 264.945312 C 22.480469 262.265625 21.277344 259.554688 20.144531 256.816406 C 19.007812 254.078125 17.941406 251.3125 16.941406 248.523438 C 15.945312 245.730469 15.015625 242.917969 14.15625 240.078125 C 13.292969 237.242188 12.503906 234.386719 11.78125 231.511719 C 11.0625 228.636719 10.414062 225.742188 9.835938 222.835938 C 9.257812 219.929688 8.75 217.007812 8.316406 214.074219 C 7.878906 211.144531 7.515625 208.203125 7.226562 205.253906 C 6.9375 202.300781 6.71875 199.347656 6.574219 196.386719 C 6.425781 193.425781 6.355469 190.460938 6.355469 187.496094 C 6.355469 184.53125 6.425781 181.570312 6.574219 178.609375 C 6.71875 175.648438 6.9375 172.691406 7.226562 169.742188 C 7.515625 166.792969 7.878906 163.851562 8.316406 160.917969 C 8.75 157.984375 9.257812 155.066406 9.835938 152.15625 C 10.414062 149.25 11.0625 146.359375 11.78125 143.484375 C 12.503906 140.605469 13.292969 137.75 14.15625 134.914062 C 15.015625 132.078125 15.945312 129.261719 16.941406 126.472656 C 17.941406 123.679688 19.007812 120.914062 20.144531 118.175781 C 21.277344 115.4375 22.480469 112.726562 23.746094 110.046875 C 25.011719 107.367188 26.347656 104.722656 27.742188 102.105469 C 29.140625 99.492188 30.601562 96.914062 32.125 94.371094 C 33.648438 91.828125 35.234375 89.324219 36.882812 86.859375 C 38.53125 84.394531 40.234375 81.972656 42.003906 79.589844 C 43.769531 77.210938 45.589844 74.871094 47.472656 72.582031 C 49.351562 70.289062 51.289062 68.046875 53.277344 65.847656 C 55.269531 63.652344 57.3125 61.507812 59.410156 59.410156 C 61.507812 57.3125 63.652344 55.269531 65.847656 53.277344 C 68.046875 51.289062 70.289062 49.351562 72.582031 47.472656 C 74.871094 45.589844 77.210938 43.769531 79.589844 42.003906 C 81.972656 40.234375 84.394531 38.53125 86.859375 36.882812 C 89.324219 35.234375 91.828125 33.648438 94.371094 32.125 C 96.914062 30.601562 99.492188 29.140625 102.105469 27.742188 C 104.722656 26.347656 107.367188 25.011719 110.046875 23.746094 C 112.726562 22.480469 115.4375 21.277344 118.175781 20.144531 C 120.914062 19.007812 123.679688 17.941406 126.472656 16.941406 C 129.261719 15.945312 132.078125 15.015625 134.914062 14.15625 C 137.75 13.292969 140.605469 12.503906 143.484375 11.78125 C 146.359375 11.0625 149.25 10.414062 152.15625 9.835938 C 155.066406 9.257812 157.984375 8.75 160.917969 8.316406 C 163.851562 7.878906 166.792969 7.515625 169.742188 7.226562 C 172.691406 6.9375 175.648438 6.71875 178.609375 6.574219 C 181.570312 6.425781 184.53125 6.355469 187.496094 6.355469 C 190.460938 6.355469 193.425781 6.425781 196.386719 6.574219 C 199.347656 6.71875 202.300781 6.9375 205.253906 7.226562 C 208.203125 7.515625 211.144531 7.878906 214.074219 8.316406 C 217.007812 8.75 219.929688 9.257812 222.835938 9.835938 C 225.742188 10.414062 228.636719 11.0625 231.511719 11.78125 C 234.386719 12.503906 237.242188 13.292969 240.078125 14.15625 C 242.917969 15.015625 245.730469 15.945312 248.523438 16.941406 C 251.3125 17.941406 254.078125 19.007812 256.816406 20.144531 C 259.554688 21.277344 262.265625 22.480469 264.945312 23.746094 C 267.625 25.011719 270.273438 26.347656 272.886719 27.742188 C 275.5 29.140625 278.082031 30.601562 280.621094 32.125 C 283.164062 33.648438 285.667969 35.234375 288.132812 36.882812 C 290.597656 38.53125 293.023438 40.234375 295.402344 42.003906 C 297.785156 43.769531 300.121094 45.589844 302.414062 47.472656 C 304.703125 49.351562 306.949219 51.289062 309.144531 53.277344 C 311.339844 55.269531 313.488281 57.3125 315.585938 59.410156 C 317.679688 61.507812 319.722656 63.652344 321.714844 65.847656 C 323.707031 68.046875 325.640625 70.289062 327.523438 72.582031 C 329.402344 74.871094 331.226562 77.210938 332.992188 79.589844 C 334.757812 81.972656 336.464844 84.394531 338.113281 86.859375 C 339.757812 89.324219 341.34375 91.828125 342.867188 94.371094 C 344.390625 96.914062 345.851562 99.492188 347.25 102.105469 C 348.648438 104.722656 349.980469 107.367188 351.246094 110.046875 C 352.515625 112.726562 353.714844 115.4375 354.851562 118.175781 C 355.984375 120.914062 357.050781 123.679688 358.050781 126.472656 C 359.050781 129.261719 359.980469 132.078125 360.839844 134.914062 C 361.699219 137.75 362.492188 140.605469 363.210938 143.484375 C 363.929688 146.359375 364.582031 149.25 365.160156 152.15625 C 365.738281 155.066406 366.242188 157.984375 366.679688 160.917969 C 367.113281 163.851562 367.476562 166.792969 367.765625 169.742188 C 368.058594 172.691406 368.277344 175.648438 368.421875 178.609375 C 368.566406 181.570312 368.640625 184.53125 368.640625 187.496094 Z M 368.640625 187.496094 " fill-opacity="1" fill-rule="nonzero"/></g></svg>