<svg xmlns="http://www.w3.org/2000/svg" xmlns:xlink="http://www.w3.org/1999/xlink" width="500" zoomAndPan="magnify" viewBox="0 0 375 374.999991" height="500" preserveAspectRatio="xMidYMid meet" version="1.0"><path fill="#f580eb" d="M 315.21875 17.152344 C 304.773438 17.152344 294.324219 21.195312 286.574219 28.945312 L 187.5 127.683594 L 88.761719 28.945312 C 80.675781 21.195312 70.566406 17.152344 60.117188 17.152344 C 49.671875 17.152344 39.226562 21.195312 31.472656 28.945312 L 29.117188 31.304688 C 13.277344 47.140625 13.277344 72.753906 29.117188 88.59375 L 127.851562 187.328125 L 29.117188 286.402344 C 13.277344 302.242188 13.277344 327.851562 29.117188 343.691406 L 31.472656 346.050781 C 39.226562 353.800781 49.671875 357.84375 60.117188 357.84375 C 70.566406 357.84375 81.011719 353.800781 88.761719 346.050781 L 187.5 247.3125 L 286.238281 346.050781 C 293.988281 353.800781 304.433594 357.84375 314.882812 357.84375 C 325.328125 357.84375 335.773438 353.800781 343.523438 346.050781 L 345.882812 343.691406 C 361.722656 327.851562 361.722656 302.242188 345.882812 286.402344 L 247.148438 187.328125 L 345.882812 88.59375 C 361.722656 72.753906 361.722656 47.140625 345.882812 31.304688 L 343.523438 28.945312 C 335.773438 21.195312 325.328125 17.152344 315.21875 17.152344 Z M 315.21875 17.152344 " fill-opacity="1" fill-rule="nonzero"/></svg>